<svg id="Layer_1" data-name="Layer 1" xmlns="http://www.w3.org/2000/svg" viewBox="0 0 418.89 337.65"><defs><style>.cls-1,.cls-2{fill:#fff;}.cls-1{stroke:#000;stroke-miterlimit:10;}.cls-3{fill:#181d27;}.cls-4{fill:#000102;}.cls-5{fill:#070707;}.cls-6{fill:#4527af;}.cls-7{fill:#050505;}</style></defs><title>airplane-illust-fixed</title><path class="cls-1" d="M405.56,252.22c-8-4.06-21.45-5-21.45-5-12.76-.79-14.76-1.48-14.76-1.48-2.38-.85-4.75-2.76-9.5-6.59a34.14,34.14,0,0,0-5.52-3.63c-.78-.41-1.63-.82-2.58-1.22a22.32,22.32,0,0,0-4-1.24c-1.89-.42-3.8-.73-5.7-1h-.32a1.55,1.55,0,0,1-.67-.14c-24.33-2.55-48.54,9-52.38,10.87l-.22.11a58.34,58.34,0,0,0-5.53,3l-.23.19a.49.49,0,0,1-.28.11l-1,.62-.07.05a10.74,10.74,0,0,1-1.11.91.59.59,0,0,1-.37.06c-15.14,10.26-17.83,22-17.83,22h148.7c2.52.29,5.36.32,6.72-.86C420.71,266.26,415,257,405.56,252.22Z" transform="translate(0.01 4.28)"/><path class="cls-1" d="M144.1,283.37c-8-4.06-21.45-5-21.45-5-12.82-.79-14.72-1.46-14.72-1.46-2.38-.85-4.75-2.76-9.5-6.59a34.14,34.14,0,0,0-5.52-3.63c-.78-.41-1.63-.82-2.58-1.22a22.32,22.32,0,0,0-4-1.24c-1.89-.42-3.8-.73-5.71-1h-.31a1.55,1.55,0,0,1-.67-.14c-24.33-2.55-48.54,9-52.39,10.87l-.22.11a58.14,58.14,0,0,0-5.52,3l-.23.19a.57.57,0,0,1-.28.11L20,278l-.07.05a10.74,10.74,0,0,1-1.11.91.59.59,0,0,1-.37.06C3.31,289.27.62,301,.62,301H149.27c2.52.29,5.37.32,6.73-.86C159.25,297.43,153.53,288.19,144.1,283.37Z" transform="translate(0.01 4.28)"/><path d="M344.48,264.23c-12.25-9.43-33-11.66-33-11.66-19.72-1.82-22.65-3.4-22.65-3.4-3.67-2-7.32-6.41-14.62-15.29a56.79,56.79,0,0,0-8.49-8.42,46.66,46.66,0,0,0-4-2.84,27.49,27.49,0,0,0-6.17-2.87,64.7,64.7,0,0,0-8.79-2.24,1.59,1.59,0,0,1-.48.07,1.71,1.71,0,0,1-1-.33c-37.43-5.9-74.68,21-80.6,25.26l-.33.24a106.09,106.09,0,0,0-8.5,6.89l-.36.45a.63.63,0,0,1-.43.26c-.51.47-1,1-1.5,1.43l-.12.13a19.13,19.13,0,0,1-1.7,2.11.56.56,0,0,1-.57.12c-23.3,23.82-27.44,51.19-27.44,51.19H352.44c3.88.68,8.25.75,10.35-2C367.79,296.82,359,275.43,344.48,264.23Z" transform="translate(0.01 4.28)"/><path class="cls-2" d="M70.68,91.43l2.67,20L88.06,97.82Z" transform="translate(0.01 4.28)"/><path class="cls-2" d="M77.93,113.82,67,117.37a.78.78,0,0,1-1-.48v0a.75.75,0,0,1,.4-1l.11,0,10.94-3.55a.8.8,0,0,1,1,.51.75.75,0,0,1-.4,1Z" transform="translate(0.01 4.28)"/><path class="cls-2" d="M79.17,117.63l-10.94,3.55a.8.8,0,0,1-1-.52.73.73,0,0,1,.39-1l.13,0,10.93-3.56a.79.79,0,0,1,1,.51h0a.73.73,0,0,1-.39,1Z" transform="translate(0.01 4.28)"/><path d="M72.46,83.43l-12,16L76.87,110.3l12-16Z" transform="translate(0.01 4.28)"/><path class="cls-2" d="M102.86,105.74c2.85,8.77-1.87,17.4-11.18,20.42s-19.13-1.63-22-10.4S72,97.36,81.33,94.34,99.62,95.78,102.86,105.74Z" transform="translate(0.01 4.28)"/><path class="cls-3" d="M91.87,126.75C82.2,129.89,71.87,125,69,115.9s2.5-19.09,12.17-22.23c9.84-3.2,19,1.65,22.33,11.78C106.44,114.65,101.62,123.58,91.87,126.75ZM81.57,95c-9,2.9-14,12.09-11.24,20.53s12.2,12.92,21.16,10,13.42-11.08,10.68-19.52c-3.1-9.51-11.47-14-20.6-11Z" transform="translate(0.01 4.28)"/><path class="cls-3" d="M92.16,106.32a2,2,0,1,0-2.69-1.27,2.1,2.1,0,0,0,2.68,1.27Z" transform="translate(0.01 4.28)"/><path class="cls-3" d="M99.64,97.36a.65.65,0,0,1-.62-.08.58.58,0,0,1-.17-.8.39.39,0,0,1,.08-.1l3.15-4a.66.66,0,0,1,.91-.19l.09.07a.58.58,0,0,1,.17.8.39.39,0,0,1-.08.1l-3.15,4C99.88,97.19,99.82,97.3,99.64,97.36Z" transform="translate(0.01 4.28)"/><path d="M79.25,92.11,59,93.62l.88,19.31,20.29-1.5Z" transform="translate(0.01 4.28)"/><path class="cls-2" d="M188.78,196.86c8.93,14.29,23.93,37.28,30.89,62.6,5.48,20,4,41,3.4,63l48.61,7.65s-.26-7.66-6.61-11.33a20.74,20.74,0,0,1-3.32-2.56c-10.11-6.62-6.83-38-6.83-38,4-37.93-15.64-77.7-35.59-97.75a87.61,87.61,0,0,0-18.25-14,30.13,30.13,0,0,1-.84,15A30.58,30.58,0,0,1,188.78,196.86Z" transform="translate(0.01 4.28)"/><path class="cls-3" d="M222.12,326.27v.79l50.42,6.31-.05-1c.06-.44-.49-9-7.07-13.07-5.48-3.3-9.7-8.92-9-46.59.33-17.63-4.14-38.36-10.45-57.3a9.42,9.42,0,0,1-2.05-2.76,1.79,1.79,0,0,1-.55-1.58,1.64,1.64,0,0,1-.9-1.22,1.94,1.94,0,0,1-.2-.7l-.12-.09c7.5,20.54,13.17,44.14,12.83,63.78-.59,35.53,2.65,43.73,9.79,48.07,4.63,2.84,5.84,8.35,6.21,10.67l-47.26-5.84c0-2.5,0-5.1.11-7.58.39-21.84.72-42.55-4.35-62.25-6.9-26.54-21-50.29-30.28-66.07l-1.29-2.23C192.69,179.4,198,171.27,204,163a1.73,1.73,0,0,1-.73-1.72C197,170,191.46,178.47,186.38,187l-.26.42,1.86,3.11c4.25,7.22,9.52,16.15,14.63,26.24a2.94,2.94,0,0,1,.38.75,197.78,197.78,0,0,1,15,38.59c5,19.46,4.61,40.05,4.23,61.77C222.23,320.73,222.14,323.43,222.12,326.27Z" transform="translate(0.01 4.28)"/><path class="cls-4" d="M257.64,309.36c-11.54,0-23.12-.44-34.75.16q0,8.19-.06,16.67l49.69,6.54s-.46-7.79-7-11.37C262.1,319.3,259.42,316.63,257.64,309.36Z" transform="translate(0.01 4.28)"/><path class="cls-2" d="M257.59,312.82a24.3,24.3,0,0,0-6.24,2.85c-.58.28,0,1.12.53.83a21.6,21.6,0,0,1,6-2.69.52.52,0,0,0-.29-1Z" transform="translate(0.01 4.28)"/><path class="cls-2" d="M259.26,316a42.05,42.05,0,0,1-6.52,3.4c-.59.23-.14,1.11.46.88a42.94,42.94,0,0,0,6.52-3.4C260.25,316.51,259.79,315.63,259.26,316Z" transform="translate(0.01 4.28)"/><path class="cls-2" d="M173,166.7c-9.11,14.15-23.63,37.47-43.73,54.43-15.85,13.38-35.45,20.92-55.63,29.74l13.7,47.34s6.8-3.47,7.52-10.75,4.88-13.17,34.94-26c6.69-2.86,9.48-3.89,14.17-6.53a70.28,70.28,0,0,0,14.47-10.42,72.67,72.67,0,0,0,5.68-6.11c11.61-14.37,4.2-31.28,15.15-38.74,8.34-5.67,16.75-1.62,24.53-9.52,4.43-4.49,6-10.19,6.69-14.42A309.43,309.43,0,0,0,173,166.7Z" transform="translate(0.01 4.28)"/><path class="cls-3" d="M211.67,176.22a315.6,315.6,0,0,0-37.46-9.5h-.5l-1.88,2.71c-9.37,14.1-23.64,35.5-42.77,51.15-14.12,11.51-31.06,18.53-49,25.85-2.29,1-4.63,1.85-6.91,2.83l-.6.24,13.33,49,1-.22c.25-.14,7.26-3.66,8.08-11.25.67-6.38,3.67-12.16,34.87-24.9,11.15-4.59,22.78-12.45,33.56-21.54a.39.39,0,0,1,.14-.44,13.79,13.79,0,0,0,1.43-1.63l1.37-1.47a.52.52,0,0,1,.1-.18c.5-.6,1-1.14,1.51-1.74a3.73,3.73,0,0,1,.63-1.07l.09-.19a.49.49,0,0,1,.14-.23c-12.41,11.36-26.46,21.54-39.78,27-29.29,12-34.94,17.89-35.84,26.07-.54,5.27-4.62,8.43-6.42,9.56L74.25,250.35c2.16-.92,4.29-1.74,6.29-2.5,18.1-7.39,35.14-14.38,49.41-26.06,19.25-15.71,33.56-37.2,43.07-51.46l1.34-2a310.24,310.24,0,0,1,35.92,9c-1.91,3.91-4.12,8.47-6.6,13.57-2.52,5.28-6.93,11.91-12.61,19a2.45,2.45,0,0,1,.87,1.09,2.09,2.09,0,0,1,.22.2c5.89-7.34,10.47-14.2,13.09-19.63s4.95-10.2,6.92-14.31l.36-.83Z" transform="translate(0.01 4.28)"/><path d="M101.61,274.88c-4.1-10.6-7.85-21.31-12.55-31.69-5,1.92-10.1,3.84-15.27,5.83l11.76,47.85s6.94-3.19,8-10.44C94.05,282.51,95.59,279.12,101.61,274.88Z" transform="translate(0.01 4.28)"/><path class="cls-2" d="M245.92,219.13c-10.9-25.5-31.6-46.3-43.9-56.4-4.6-3.8-8.7-7.3-12.2-10.2-1,1.7-2,3.3-3,5a310.39,310.39,0,0,0-33.4,1.7c-4.4,14.3-10.9,36.7-22.5,56.8,8.3,8.8,28.1,22.4,32.4,23.8,9.3-12.7,15.6-27.4,19.8-40.6,8.6,9.9,18.2,22,25.8,35.5C220.62,232.23,242.52,222.13,245.92,219.13Z" transform="translate(0.01 4.28)"/><path class="cls-3" d="M244.91,214.66a1.62,1.62,0,0,1-.17-.35l-.3-.61a1.75,1.75,0,0,1-.52-1.07h0a1.74,1.74,0,0,1-.55-1.1c-.13-.25-.24-.49-.37-.73a1.71,1.71,0,0,1-.54-1c-13-24.34-33.32-42.29-39.74-47.65-4.6-3.8-8.7-7.2-12.2-10.2l-.7-.6-.5.7c-.9,1.6-1.9,3.1-2.8,4.7a312.77,312.77,0,0,0-33.1,1.7l-.5.1-1,3.2c-4.3,14-10.7,35.1-21.6,53.9l-.3.5.4.4c8,8.5,28,22.5,32.7,24l.25.1a.38.38,0,0,1,.14-.44,13.79,13.79,0,0,0,1.43-1.63c.45-.49.92-1,1.37-1.46a.5.5,0,0,1,.1-.19l.14-.16a144.25,144.25,0,0,0,17.07-36c7,8.2,17,20.4,24.8,34.4l.3.5.5-.1c11.5-2.5,33.7-12.6,37.4-15.8l.4-.4-.2-.5C246.22,217.43,245.57,216,244.91,214.66Zm-35.56,19.27c-8.2-14.6-18.5-27-25.6-35.2l-.9-1-.4,1.3c-5,15.5-11.5,28.9-19.4,39.9-4.9-2-22.9-14.4-31.2-23,10.8-18.8,17.2-39.8,21.4-53.7l.7-2.2a307.15,307.15,0,0,1,32.8-1.7h.4l.2-.4c.9-1.5,1.7-2.9,2.6-4.3,3.4,2.9,7.3,6.1,11.6,9.7,7.2,5.9,31.2,27.3,43.5,55.6C240.82,222,220.92,231.23,209.35,233.93Z" transform="translate(0.01 4.28)"/><path class="cls-2" d="M112.82,285.53a25.44,25.44,0,0,0-6.3-2.7c-.6-.2-.9.8-.3.9a21.93,21.93,0,0,1,6.1,2.6C112.92,286.63,113.42,285.83,112.82,285.53Z" transform="translate(0.01 4.28)"/><path class="cls-2" d="M111.72,289a43.45,43.45,0,0,1-7.1-1.8.47.47,0,1,0-.3.9h0a43.45,43.45,0,0,0,7.1,1.8C112.12,290.13,112.35,289.13,111.72,289Z" transform="translate(0.01 4.28)"/><path class="cls-3" d="M184,196.93h-.2a.71.71,0,0,1-.5-.88v0a97.59,97.59,0,0,0,3.4-14.7l.1-.5.5-.1a38.26,38.26,0,0,0,6.5-2.2.76.76,0,0,1,.6,1.4,34.08,34.08,0,0,1-6.3,2.2,102.83,102.83,0,0,1-3.4,14.4C184.72,196.73,184.42,196.93,184,196.93Z" transform="translate(0.01 4.28)"/><path class="cls-3" d="M148.35,238.93a8.65,8.65,0,0,0-.9,5.9c.1.6,1.1.4.9-.3a7.26,7.26,0,0,1,.8-5.2C149.52,238.93,148.62,238.43,148.35,238.93Z" transform="translate(0.01 4.28)"/><path class="cls-3" d="M243.62,234.83a7.79,7.79,0,0,1-3.7-3c-.3-.5-1.2,0-.8.5a8.06,8.06,0,0,0,4.3,3.4C244,235.93,244.22,235,243.62,234.83Z" transform="translate(0.01 4.28)"/><path d="M166.35,157.43h-18.8a17.67,17.67,0,0,1-17.7-17.64V104.43a17.67,17.67,0,0,1,17.64-17.7h18.86a17.67,17.67,0,0,1,17.7,17.64v35.26a17.69,17.69,0,0,1-17.58,17.8Z" transform="translate(0.01 4.28)"/><path class="cls-2" d="M134.82,135.73a.79.79,0,0,1-.8-.78V105.83c0-8.1,6-14.8,13.4-14.8h14.2a.79.79,0,0,1,.8.78v0a.74.74,0,0,1-.67.8H147.42c-6.5,0-11.9,5.9-11.9,13.3V135C135.62,135.33,135.35,135.73,134.82,135.73Z" transform="translate(0.01 4.28)"/><path class="cls-2" d="M141.42,104a.67.67,0,0,1-.7-.66v0a.77.77,0,0,1,.7-.8l16.2-.4a.75.75,0,1,1,.1,1.5Z" transform="translate(0.01 4.28)"/><path class="cls-2" d="M195,64.43c-4.9-5.1-14-6.9-19.4-2s-5.3,13.5.1,19.5l.1.1a9.1,9.1,0,0,0-1.3,1.6c-2.2,3.7-.4,7.4,3.1,7.7a7.81,7.81,0,0,0,8.1-4.6,14.34,14.34,0,0,0,9.4-2.8C203.22,77.83,200.62,70.23,195,64.43Z" transform="translate(0.01 4.28)"/><path class="cls-3" d="M178.35,92.13h-.9a5,5,0,0,1-4.2-2.9,6,6,0,0,1,.6-6l.9-1.2a16,16,0,0,1-3.8-10.2,13.29,13.29,0,0,1,4.2-9.9c5.8-5.2,15.4-3.1,20.4,2.1,2.7,2.8,5.8,7.1,5.4,11.9q-.45,4.95-5.4,8.7a15.07,15.07,0,0,1-9.4,3A8.72,8.72,0,0,1,178.35,92.13Zm5.2-31.8a10.35,10.35,0,0,0-7.3,2.7,11.66,11.66,0,0,0-3.7,8.8,14.63,14.63,0,0,0,3.9,9.7l.5.5-.4.6a7.91,7.91,0,0,0-1.2,1.5,4.82,4.82,0,0,0-.5,4.6,3.64,3.64,0,0,0,3,2,7.21,7.21,0,0,0,7.4-4.1l.2-.5h.5a13.39,13.39,0,0,0,8.9-2.6c3-2.3,4.6-4.8,4.8-7.7.3-4.2-2.5-8.2-5-10.7a15.89,15.89,0,0,0-11.13-4.8Z" transform="translate(0.01 4.28)"/><path class="cls-3" d="M181.72,83.43a5.05,5.05,0,0,0-5.4,3.2c-.2.6.7,1,.9.4a4.12,4.12,0,0,1,4.3-2.7C182.12,84.53,182.35,83.53,181.72,83.43Z" transform="translate(0.01 4.28)"/><path class="cls-5" d="M184.12,61.73c-1.4,2.9-10.1,11.4-4.6,15.3,1.4,1,2.6,1.2,2.1,2.8-.8,1.6-2.4.5-2.4.5a12.77,12.77,0,0,0-4.2,3.6c-8.9.9-8.4-8.2-6.7-10.7,0,0-4.5-10,3.8-11.2,0,0,2.8-12.1,9-10.6C189,53.43,184.12,61.73,184.12,61.73Z" transform="translate(0.01 4.28)"/><path d="M186.52,93.33c-17.4,4.4-28.5,15.7-35,41.1s-6.9,30.4-6.9,30.4l57.5-2.1C202,162.73,225.22,83.53,186.52,93.33Z" transform="translate(0.01 4.28)"/><path class="cls-3" d="M203.49,160.49c2.82-10.52,12.68-51.26-.17-64.56-3.9-4.1-9.6-5.2-16.9-3.4-18.7,4.7-29.3,17.2-35.6,41.7-6.5,25.2-6.9,30.3-6.9,30.5l-.1.8,58.8-2.1.2-.5.41-1.47A1.93,1.93,0,0,1,203.49,160.49Zm-2,1.54-56,2c.3-2.2,1.6-9.6,6.7-29.4,6.1-23.9,16.4-36,34.5-40.6a26.11,26.11,0,0,1,5.9-.8,12.65,12.65,0,0,1,9.6,3.8c13.16,13.6.83,59.6-.67,65Z" transform="translate(0.01 4.28)"/><path class="cls-2" d="M186.52,93.33c15.8-4.5,45.1-6.9,48.1-11.2s17.7-33.2,22.3-37.3c2.3-2,5.2.3,5.2.3a3.46,3.46,0,0,1,3.9.9,28.23,28.23,0,0,0,3.2-3.7c2-2.8,3.2-5,4.7-4.2,3.6,2.1-5.9,16.1-6.5,17.4l3.1-.4s.1-5.8,2.9-5.8,1.2,9.6.2,12.3c-1.5,4.3-4.7,5.2-10,9.4-4.3,3.4-3.8,34.3-34.5,40.4-5.6,1.1-20.6,4.6-24.7,4.1C185.72,113.53,186.52,93.33,186.52,93.33Z" transform="translate(0.01 4.28)"/><path class="cls-3" d="M205.22,116.33h-.87c-19.1-2-18.5-22.8-18.5-23v-.5l.5-.1c6.5-1.8,15.1-3.3,23.4-4.7,11.1-1.9,22.7-3.9,24.3-6.2,1-1.5,3.5-6,6.4-11.2,5.7-10.4,12.9-23.4,16-26.2a4.77,4.77,0,0,1,5.8,0,4,4,0,0,1,3.7.7,30.88,30.88,0,0,0,2.6-3c.2-.3.5-.7.7-1,1.7-2.4,3.1-4.5,5-3.4a2.49,2.49,0,0,1,1.1,1.5c.5,2.1-1,5.8-3.2,9.8a2.63,2.63,0,0,1,1.2-.3,2.09,2.09,0,0,1,1.6.8c1.7,2.4.2,10.2-.6,12.5-1.2,3.3-3.3,4.8-6.3,6.8-1.2.8-2.5,1.7-4,2.9-.9.7-1.7,3.4-2.6,6.6-3.1,10.3-8.8,29.3-32.2,33.9-1.1.2-2.6.5-4.3.9C218.22,114.43,209.22,116.33,205.22,116.33Zm-18-22.5c0,3.2.9,19.1,17.2,20.9,3.2.3,13.4-1.8,20.2-3.2,1.7-.4,3.2-.7,4.4-.9,22.5-4.4,27.9-22.2,31.1-32.9,1.1-3.8,1.9-6.3,3.2-7.3,1.5-1.2,2.9-2.1,4-2.9,2.9-2,4.7-3.3,5.7-6.1s1.9-9.5.8-11.1c-.1-.2-.2-.2-.3-.2-1.7,0-2.1,4-2.1,5.1v.7l-5.3.5.6-1.2c.1-.2.4-.6.9-1.4,1.7-2.8,7.1-11.4,6.3-14.4a1,1,0,0,0-.4-.6c-.6-.4-1.6.9-3,3-.2.3-.5.7-.7,1a28.37,28.37,0,0,1-3.3,3.8l-.6.5-.5-.6a2.76,2.76,0,0,0-3-.7l-.4.2-.4-.3c-.1-.1-2.4-1.8-4.2-.3-2.9,2.6-10.3,16-15.7,25.8-3,5.5-5.4,9.9-6.5,11.4-1.9,2.7-10.8,4.3-25.3,6.8C201.92,90.73,193.62,92.13,187.22,93.83ZM270,52.53c-.4.7-.8,1.3-1.2,2v.1l1-.1a16.72,16.72,0,0,1,.2-2Z" transform="translate(0.01 4.28)"/><path d="M220.52,104c-.9-5.7-2.5-11.1-3.9-16.6-10,1.8-21.9,3.5-30.2,5.9,0,0-.8,20.2,17.8,22.2,2.9.3,10.9-1.3,17.5-2.6C221.42,109.93,221,107,220.52,104Z" transform="translate(0.01 4.28)"/><path class="cls-2" d="M205.22,116.33h-.87c-19.1-2-18.5-22.8-18.5-23v-.5l.5-.1c6.5-1.8,15.1-3.3,23.4-4.7,2.3-.4,4.6-.8,6.8-1.2l.7-.1.2.7c.3,1.3.7,2.5,1,3.8,1.1,4.2,2.2,8.5,2.9,12.9.4,2.9.9,5.9,1.2,8.8l.1.7-.7.1C215.52,114.93,208.62,116.33,205.22,116.33Zm-18-22.5c0,3.2.9,19.1,17.2,20.9,2.6.3,10.1-1.1,16.5-2.5-.3-2.7-.7-5.5-1.1-8.1-.7-4.3-1.8-8.6-2.9-12.8-.3-1-.6-2.1-.8-3.1-2,.4-4.1.7-6.1,1.1C201.92,90.73,193.62,92.13,187.22,93.83Z" transform="translate(0.01 4.28)"/><path class="cls-6" d="M261.35,45a21.86,21.86,0,0,0-3.5,5.9c-.3.6.6,1.1.8.5,1-2,1.8-4.1,3.3-5.7C262.42,45.23,261.72,44.53,261.35,45Z" transform="translate(0.01 4.28)"/><path class="cls-6" d="M265.62,45.83c-.8,1.6-1.6,3.2-2.4,4.9-.3.6.6,1.1.8.5.8-1.6,1.6-3.2,2.4-4.9C266.72,45.73,265.92,45.23,265.62,45.83Z" transform="translate(0.01 4.28)"/><path d="M159.72,129.43c6.1-9.9,17.6-23.7,26.8-36.1-18.8,4.7-36,15.7-46.4,28.5C146.52,124.43,153.35,126.53,159.72,129.43Z" transform="translate(0.01 4.28)"/><path class="cls-7" d="M160,130.33l-.6-.3c-3.6-1.6-7.5-3-11.2-4.4-2.8-1-5.6-2.1-8.4-3.2l-.9-.4.6-.8c10.9-13.4,28.4-24.1,46.8-28.7l2-.5-1.2,1.7c-3.3,4.4-6.9,9.1-10.3,13.6-6.4,8.3-12.5,16.2-16.4,22.5Zm-18.67-8.9c2.5,1,5,1.9,7.4,2.8,3.5,1.3,7.2,2.6,10.7,4.2,4-6.3,9.9-13.9,16.2-22.1,3-3.9,6.1-7.9,9-11.8C167.62,99.23,151.72,109.23,141.35,121.43Z" transform="translate(0.01 4.28)"/><path class="cls-2" d="M174.82,129.73c1.8-8,7-10.8,10.6-11.3s6.1-.6,6.1,2.1C191.52,125,174.82,129.73,174.82,129.73Z" transform="translate(0.01 4.28)"/><path class="cls-2" d="M190.35,129.93c-1.9-8.1-3-18.5-8.9-24.9-4.3-4.7-10.2-6.1-16.3-6.2a46,46,0,0,0-5.7,4.1c6.8-.6,14.4-.4,19.2,5,4.6,5.1,5.5,13.2,7,19.6,1.8,7.6,5.8,17.7-.8,24.1-5.5,5.3-14.6,6.4-21.9,6.3-2.5,0-2.5,3.9,0,3.9,8.3.1,17.7-1.3,24.1-7C194.62,148,192.42,138.53,190.35,129.93Z" transform="translate(0.01 4.28)"/><path class="cls-2" d="M174.42,129.73c-8.3,6.2-17.7,13.4-18.7,11.2-1.3-2.9,2.2-9.2,7.6-17a100.55,100.55,0,0,0-19.4-6.5c-13,13.4-18.6,29.6-9.9,42.5,16,23.7,36.2,4,48.4-8.5,4.8-4.9,12-13.7,12.7-15.8,1.5-4.5-.4-5.3-.4-5.3s1.7-4.9-2.5-6c0,0,1.1-9.6-11.9.7" transform="translate(0.01 4.28)"/><path class="cls-3" d="M151.42,171.83a8.55,8.55,0,0,1-1.6-.1c-6.1-.5-11.7-4.4-16.4-11.4-8.2-12.2-4.5-28.4,10-43.4l.3-.3.4.1a111.58,111.58,0,0,1,19.5,6.5l.8.4-.5.7c-2.2,3.2-9,12.9-7.5,16.3,1.4.6,10.6-6.3,16-10.4l1.5-1.1a.67.67,0,0,1,1,.13l0,.07c.2.4.2.8-.2,1l-1.5,1.1c-9.3,7-15.1,11.1-17.3,10.6a1.57,1.57,0,0,1-1-.8c-1.2-2.9.9-8,7.1-17a102.78,102.78,0,0,0-18-6c-13.7,14.3-17.3,29.7-9.5,41.2,4.5,6.6,9.6,10.2,15.3,10.7,12.1,1.1,25-12.2,32-19.3,5-5.2,11.9-13.7,12.6-15.5,1.2-3.6.1-4.3.1-4.3l-.7-.3.2-.7a5.3,5.3,0,0,0-.1-3.6,2.76,2.76,0,0,0-2-1.4l-.6-.2.1-.6s.2-2.3-1.1-3c-.9-.5-3.4-.6-9.6,4.4a.78.78,0,0,1-1-1.2c5.3-4.3,9-5.8,11.3-4.5,1.6.9,1.8,2.9,1.8,3.9a4.19,4.19,0,0,1,2.3,2,6.55,6.55,0,0,1,.3,4.3c.6.6,1.4,2.2.2,5.8-.8,2.4-8.4,11.5-12.9,16.1C173.52,161.63,162.62,171.83,151.42,171.83Z" transform="translate(0.01 4.28)"/><path d="M157.92,106a78.4,78.4,0,0,0-17.8,15.8c6.5,2.7,13.2,4.7,19.6,7.6a187.88,187.88,0,0,1,11.2-15.7A71.53,71.53,0,0,0,157.92,106Z" transform="translate(0.01 4.28)"/><path class="cls-2" d="M160,130.33l-.6-.3c-3.6-1.6-7.5-3-11.2-4.4-2.8-1-5.6-2.1-8.4-3.2l-.9-.4.6-.8a77.56,77.56,0,0,1,18-15.9l.3-.2.4.2a68,68,0,0,1,13.1,7.8l.6.5-.5.6c-3.8,5-8.1,10.8-11.1,15.6Zm-18.67-8.9c2.5,1,5,1.9,7.4,2.8,3.5,1.3,7.2,2.6,10.7,4.2,2.9-4.6,6.8-9.9,10.4-14.6a77,77,0,0,0-11.8-7A82.15,82.15,0,0,0,141.35,121.43Z" transform="translate(0.01 4.28)"/><path class="cls-3" d="M193.72,129.83c-2.1-.2-3.5,1.4-4.7,2.9-.4.5.3,1.2.7.7,1-1.3,2.2-2.8,4-2.6a.5.5,0,0,0,0-1Z" transform="translate(0.01 4.28)"/><path class="cls-3" d="M190.92,124.33a11.1,11.1,0,0,0-5.4,3.4c-.4.5.3,1.2.7.7a9.84,9.84,0,0,1,4.9-3.1.51.51,0,0,0-.2-1Z" transform="translate(0.01 4.28)"/><path class="cls-2" d="M161.72,129.33a.72.72,0,0,1-.5-.2.9.9,0,0,1-.1-1.1l6.9-7.9a.78.78,0,0,1,1.2,1l-6.9,7.9A.61.61,0,0,1,161.72,129.33Z" transform="translate(0.01 4.28)"/><path class="cls-3" d="M184.52,122.43a.86.86,0,0,1-.7-.4l-2.3-5a.76.76,0,1,1,1.4-.6l2.3,5a.72.72,0,0,1-.34,1l-.06,0Z" transform="translate(0.01 4.28)"/><path d="M396.35,237.32" transform="translate(0.01 4.28)"/><path class="cls-2" d="M100.06,276.33a24.49,24.49,0,0,0-3.77-5.73c-.37-.52-1.11.14-.74.66a21.83,21.83,0,0,1,3.59,5.52C99.41,277.3,100.35,277,100.06,276.33Z" transform="translate(0.01 4.28)"/><path class="cls-2" d="M97,277.75a25.19,25.19,0,0,0-4.3-5.35c-.42-.48-1.09.24-.68.73a21.94,21.94,0,0,1,4.1,5.15C96.35,278.77,97.28,278.33,97,277.75Z" transform="translate(0.01 4.28)"/><path d="M343.07,106.64a3.19,3.19,0,0,0-4.44-.87,3.27,3.27,0,0,0-.7.64,1.58,1.58,0,0,1-.18.85.49.49,0,0,1,0,.17,1.41,1.41,0,0,1-.6,1.9,1.44,1.44,0,0,1-.67.16,1.26,1.26,0,0,1-1-.49,1.17,1.17,0,0,1-.65-.48,3.37,3.37,0,0,0-2.48,4,3.17,3.17,0,0,0,.39,1c1.05,1.65,3.24,1.81,6.55,2l1.87.14a.35.35,0,0,0,.26-.07.39.39,0,0,0,.17-.21c.22-.65.44-1.26.64-1.8C343.35,110.43,344.12,108.29,343.07,106.64Z" transform="translate(0.01 4.28)"/><path d="M137.44,30.06a3.1,3.1,0,0,0-.92-4.29l-.17-.1a3,3,0,0,0-.88-.34,1.67,1.67,0,0,1-.85.2h-.16a1.42,1.42,0,0,1-2,.27,1.46,1.46,0,0,1-.42-.53,1.23,1.23,0,0,1,0-1.09,1.22,1.22,0,0,1,.15-.79,3.08,3.08,0,0,0-.86-.75,3.23,3.23,0,0,0-4.48,1l0,0c-1,1.66-.24,3.71,1,6.8.2.53.44,1.12.68,1.75a.41.41,0,0,0,.17.2.4.4,0,0,0,.26.06l1.9-.2C134.17,32,136.4,31.72,137.44,30.06Z" transform="translate(0.01 4.28)"/><path class="cls-1" d="M43,23.51" transform="translate(0.01 4.28)"/><path d="M316.05-1.16C305.48,3,304.32,3.43,303,3.9l-3.42,1.31c-4.58,1.8-8.75,3.4-13.79,5.32-3.71,1.41-5.65,2.26-5.83,2.6a2.27,2.27,0,0,0-.28,1c0,.51.1.75.74,1.25a11.64,11.64,0,0,0,1.88,1.06c.58.26,1.69.76,2.42,1.11s1.84.87,2.42,1.12,1.8.83,2.71,1.32a19.89,19.89,0,0,0,2.26,1,4.76,4.76,0,0,1,1.36.85c.8.7,1.17,1.83,1.56,4.77.09.79.32,2.44.5,3.65s.44,3,.58,4.07c.42,3.5.84,4.5,2,4.59.52,0,.79-.08,1.26-.62a21.07,21.07,0,0,0,2.13-3c0-.33.71-.77,1.11-.74.22,0,.74.5,1.19,1.11,1.21,1.65,1.92,2.1,3.21,2.1,1.9,0,2.5-.69,4.33-4.87.57-1.31,1.53-3.46,2.09-4.78s1.21-2.71,1.36-3.09c1.16-2.65,1.58-3.56,1.89-4.18a16.41,16.41,0,0,0,.69-1.59c.18-.5.61-1.54,1-2.29.75-1.61,2.45-5.44,3.17-7.17.63-1.52,1.58-3.61,2-4.42a3,3,0,0,0,.36-1,2.76,2.76,0,0,1,.38-.92,14.32,14.32,0,0,0,.7-1.49c.2-.52.69-1.61,1.1-2.42.91-1.81.93-2.07.35-3C325.52-4.83,325.11-4.74,316.05-1.16Zm4.53,9.22a4.19,4.19,0,0,1-.43,1.55c-.75,1.8-1.9,4.38-2.18,4.84a14.17,14.17,0,0,0-.58,1.39c-.2.54-.7,1.72-1.13,2.59s-.91,2-1.11,2.49-.67,1.66-1.11,2.59L312.93,26c-.94,2.17-1.62,3.71-2.21,5-.34.76-.76,1.71-.89,2.09-1.18,3.06-2.53,4.11-4,3-.79-.58-2.43-2.88-2.39-3.37s.79-1.57,4.7-7.23c1.23-1.78,2-2.85,3.76-5.49l3.88-5.75c1.58-2.39,3.09-4.56,3.53-5.08a4.84,4.84,0,0,0,.67-1C320.19,7.65,320.45,7.59,320.58,8.06Z" transform="translate(0.01 4.28)"/><path d="M288.65,24a63.13,63.13,0,0,0-6.5,4.87c-.26.21-.81.66-1.24,1-1.18.94-1,2,.27,1.53a75.72,75.72,0,0,0,8.38-6.62C289.8,24.16,289.34,23.75,288.65,24Z" transform="translate(0.01 4.28)"/><path d="M289.74,27.66c-3,2.29-7.2,5.59-7.32,5.82-.22.42.17,1.13.59,1.08a33.34,33.34,0,0,0,4-2.83l4.23-3.31c.57-.45.62-.57.46-1.05-.09-.3-.31-.54-.47-.56A4.82,4.82,0,0,0,289.74,27.66Z" transform="translate(0.01 4.28)"/></svg>